<svg xmlns="http://www.w3.org/2000/svg" width="256" height="256" viewBox="0 0 256 256">
  <defs>
    <radialGradient id="g" cx="50%" cy="40%" r="70%">
      <stop offset="0%" stop-color="#55e1ff" stop-opacity="0.95"/>
      <stop offset="55%" stop-color="#2aa7ff" stop-opacity="0.55"/>
      <stop offset="100%" stop-color="#06131a" stop-opacity="1"/>
    </radialGradient>
    <filter id="glow" x="-50%" y="-50%" width="200%" height="200%">
      <feGaussianBlur stdDeviation="6" result="b"/>
      <feMerge>
        <feMergeNode in="b"/>
        <feMergeNode in="SourceGraphic"/>
      </feMerge>
    </filter>
  </defs>

  <rect width="256" height="256" rx="64" fill="#06131a"/>
  <circle cx="128" cy="128" r="92" fill="url(#g)" opacity="0.95"/>
  <circle cx="128" cy="128" r="92" fill="none" stroke="#55e1ff" stroke-opacity="0.55" stroke-width="6" filter="url(#glow)"/>

  <!-- буква P -->
  <path d="M92 176V78h56c24 0 40 14 40 36s-16 36-40 36h-30v26H92zm26-52h27c11 0 18-6 18-16s-7-16-18-16h-27v32z"
        fill="#e9f4ff" opacity="0.95" filter="url(#glow)"/>

  <!-- маленькая звезда -->
  <path d="M195 78l4 10 11 1-9 7 3 11-9-6-9 6 3-11-9-7 11-1 4-10z"
        fill="#55e1ff" opacity="0.9" filter="url(#glow)"/>
</svg>
